<?xml version="1.0" encoding="utf-8"?>
<!-- Generator: Adobe Illustrator 21.0.0, SVG Export Plug-In . SVG Version: 6.00 Build 0)  -->
<svg version="1.1" id="Layer_1" xmlns="http://www.w3.org/2000/svg" xmlns:xlink="http://www.w3.org/1999/xlink" x="0px" y="0px"
	 width="333.4px" height="163.4px" viewBox="0 0 333.4 163.4" style="enable-background:new 0 0 333.4 163.4;" xml:space="preserve"
	>
<style type="text/css">
	.st0{stroke:#000000;stroke-miterlimit:10;}
	.st1{fill:#D6CFC7;stroke:#D6CFC7;stroke-miterlimit:10;}
	.st2{fill:#818380;stroke:#818380;stroke-miterlimit:10;}
</style>
<path class="st0" d="M100.7,131.6c0-0.1,0-0.3,0-0.4c0-0.5,0.2-0.9,0.5-1.2c0.4-0.3,0.9-0.5,1.4-0.4c0.5,0,1,0.1,1.3,0.4
	c0.4,0.4,0.6,0.9,0.7,1.4c0.1,0.4,0.5,0.8,0.9,0.9c0.6,0.2,1.3,0.3,2,0.2h7.5c0.8,0.1,1.7-0.1,2.4-0.6c0.8-1.5,0.8-3.3,0-4.9
	c-0.7-0.5-1.6-0.7-2.4-0.6h-7.4c-4.4,0-6.6-2.2-6.6-6.6c-0.1-1.8,0.5-3.6,1.7-5c1.4-1.2,3.2-1.8,5-1.7h7.1c3.6,0,5.7,1.5,6.4,4.5
	c0,0.1,0,0.3,0,0.4c0,0.5-0.2,0.9-0.5,1.2c-0.4,0.3-0.9,0.5-1.4,0.4c-0.5,0-0.9-0.1-1.3-0.4c-0.3-0.4-0.6-0.8-0.7-1.4
	c-0.2-0.3-0.5-0.6-0.8-0.7c-0.5-0.1-1.1-0.2-1.7-0.2h-7.1c-0.6,0-1.2,0-1.8,0.2c-0.4,0.1-0.7,0.4-0.8,0.8c-0.2,0.6-0.2,1.2-0.2,1.8
	c-0.1,0.8,0.1,1.6,0.6,2.2c0.6,0.5,1.4,0.7,2.2,0.6h7.4c4.6,0,6.9,2.3,6.9,6.9c0,4.6-2.3,6.9-6.9,6.9h-7.5
	C103.6,136.4,101.4,134.8,100.7,131.6z"/>
<path d="M129.6,138.9c0-1.1,0.9-1.9,1.9-1.9c1.1,0,1.9,0.9,1.9,1.9c-0.1,0.8,0.1,1.6,0.5,2.3c0.7,0.4,1.4,0.6,2.2,0.5h8.9
	c0.8,0.1,1.6-0.1,2.2-0.6c0.4-0.7,0.6-1.5,0.5-2.2v-5.8c-0.7,1.2-1.8,2.1-3,2.6c-1.3,0.5-2.7,0.7-4.1,0.7h-2.2c-3,0-5.3-0.7-6.7-2.2
	c-1.4-1.4-2.2-3.6-2.2-6.6v-12.5c0-1.1,0.9-1.9,1.9-1.9s1.9,0.9,1.9,1.9v12.5c0,1,0.1,2,0.4,3c0.3,0.7,0.8,1.2,1.5,1.5
	c1,0.3,2,0.5,3,0.4h2.2c2.5,0,4.3-0.4,5.4-1.2c1.2-0.9,1.8-2.3,1.7-3.7v-12.5c0-1.1,0.9-1.9,1.9-1.9s1.9,0.9,1.9,1.9v23.8
	c0,4.4-2.2,6.6-6.6,6.6h-8.9C131.8,145.5,129.6,143.3,129.6,138.9z"/>
<path d="M159.9,131.6c0-0.1,0-0.3,0-0.4c0-0.5,0.2-0.9,0.5-1.2c0.4-0.3,0.9-0.5,1.4-0.4c0.5,0,1,0.1,1.3,0.4
	c0.4,0.4,0.6,0.9,0.7,1.4c0.1,0.4,0.5,0.8,0.9,0.9c0.6,0.2,1.3,0.3,2,0.2h7.5c0.8,0.1,1.7-0.1,2.4-0.6c0.8-1.5,0.8-3.3,0-4.9
	c-0.7-0.5-1.6-0.7-2.4-0.6h-7.4c-4.4,0-6.6-2.2-6.6-6.6c-0.1-1.8,0.5-3.6,1.7-5c1.4-1.2,3.2-1.8,5-1.7h7.1c3.6,0,5.7,1.5,6.4,4.5
	c0.1,0.6,0,1.2-0.5,1.6c-0.4,0.3-0.9,0.5-1.4,0.4c-0.5,0-0.9-0.1-1.3-0.4c-0.3-0.4-0.6-0.8-0.7-1.4c-0.2-0.3-0.5-0.6-0.8-0.7
	c-0.5-0.1-1.1-0.2-1.7-0.2h-7.1c-0.6,0-1.2,0-1.8,0.2c-0.4,0.1-0.7,0.4-0.8,0.8c-0.2,0.6-0.2,1.2-0.2,1.8c-0.1,0.8,0.1,1.6,0.6,2.2
	c0.6,0.5,1.4,0.7,2.2,0.6h7.4c4.6,0,6.9,2.3,6.9,6.9c0,4.6-2.3,6.9-6.9,6.8h-7.5C162.8,136.4,160.5,134.8,159.9,131.6z"/>
<path d="M200.9,134.5c0.1,1-0.6,1.8-1.6,1.9c-0.1,0-0.2,0-0.4,0c-3,0-5.3-0.7-6.7-2.2c-1.4-1.4-2.1-3.6-2.1-6.6V117H188
	c-1,0.1-1.8-0.6-2-1.5c0-0.1,0-0.3,0-0.4c-0.1-0.9,0.5-1.8,1.4-1.9c0.2,0,0.3,0,0.5,0h2.3v-3.3c-0.1-1.1,0.7-2,1.8-2.1
	s2,0.7,2.1,1.8c0,0.1,0,0.2,0,0.3v3.3h5.3c0.9-0.1,1.8,0.5,1.9,1.5c0,0.1,0,0.3,0,0.4c0.1,1-0.6,1.8-1.6,1.9c-0.1,0-0.2,0-0.4,0H194
	v10.6c0,1,0.1,2,0.5,3c0.3,0.7,0.8,1.2,1.5,1.5c1,0.3,2,0.5,3,0.4c0.9-0.1,1.8,0.5,1.9,1.4C201,134.1,201,134.3,200.9,134.5z"/>
<path d="M209.3,126.4v1.1c0,1.1,0.1,2.1,0.5,3.1c0.3,0.7,0.9,1.3,1.6,1.5c1,0.3,2.1,0.5,3.1,0.5h3.8c1.2,0.1,2.3-0.1,3.5-0.4
	c0.7-0.2,1.3-0.8,1.5-1.5c0.1-0.5,0.4-1,0.7-1.4c0.4-0.3,0.8-0.5,1.3-0.4c0.5,0,1,0.1,1.4,0.4c0.3,0.3,0.5,0.7,0.5,1.1
	c0,0.2,0,0.3,0,0.5c-0.7,3.8-3.6,5.6-8.8,5.6h-3.8c-3.1,0-5.3-0.7-6.8-2.2s-2.2-3.7-2.2-6.7v-5.3c0-3.1,0.7-5.4,2.2-6.8
	s3.7-2.2,6.8-2.2h3.7c3.1,0,5.3,0.7,6.8,2.2s2.2,3.7,2.2,6.8v2.3c0.1,1-0.6,1.8-1.6,1.9c-0.1,0-0.2,0-0.4,0L209.3,126.4z
	 M209.3,122.5h14v-0.4c0-1.1-0.1-2.1-0.5-3.1c-0.3-0.7-0.8-1.3-1.6-1.6c-1-0.3-2.1-0.5-3.1-0.5h-3.8c-1.1-0.1-2.1,0.1-3.1,0.4
	c-0.7,0.3-1.3,0.8-1.6,1.6c-0.4,1-0.5,2.1-0.5,3.2L209.3,122.5z"/>
<path d="M267.2,115.2c1.3,1.3,1.9,3.6,1.9,6.8v12.5c0,1.1-0.9,1.9-1.9,1.9c-1.1,0-1.9-0.9-1.9-1.9V122c0.1-1.3-0.2-2.7-1-3.8
	c-0.9-0.9-2-1.3-3.3-1.2h-1.9c-1.4-0.1-2.7,0.3-3.7,1.2c-0.8,1.1-1.2,2.4-1.1,3.8v12.5c0,1.1-0.9,1.9-1.9,1.9s-1.9-0.9-1.9-1.9V122
	c0.1-1.3-0.2-2.7-1-3.8c-0.9-0.9-2-1.3-3.3-1.2h-1.9c-1.4-0.1-2.7,0.3-3.7,1.2c-0.8,1.1-1.2,2.4-1.1,3.8v12.5c0,1.1-0.9,1.9-1.9,1.9
	s-1.9-0.9-1.9-1.9v-19.4c0-1.1,0.9-1.9,1.9-1.9s1.9,0.9,1.9,1.9v1.1c0.7-1,1.6-1.7,2.7-2.3c1.1-0.5,2.3-0.7,3.5-0.7h0.6
	c1.5-0.1,3,0.2,4.5,0.8c1.1,0.5,2,1.4,2.5,2.6c0.7-1.1,1.5-1.9,2.6-2.6c1.1-0.5,2.3-0.8,3.5-0.8h1.9
	C264,113.2,266,113.8,267.2,115.2z"/>
<path d="M276.9,131.6c0-0.1,0-0.3,0-0.4c0-0.5,0.2-0.9,0.5-1.2c0.4-0.3,0.9-0.5,1.4-0.4c0.5,0,1,0.1,1.3,0.4
	c0.4,0.4,0.6,0.9,0.7,1.4c0.1,0.4,0.5,0.8,0.9,0.9c0.6,0.2,1.3,0.3,2,0.2h7.5c0.8,0.1,1.7-0.1,2.4-0.6c0.8-1.5,0.8-3.3,0-4.9
	c-0.7-0.5-1.6-0.7-2.4-0.6h-7.4c-4.4,0-6.6-2.2-6.6-6.6c-0.1-1.8,0.5-3.6,1.7-5c1.4-1.2,3.2-1.8,5-1.7h7.1c3.6,0,5.7,1.5,6.4,4.5
	c0,0.1,0,0.3,0,0.4c0,0.5-0.2,0.9-0.5,1.2c-0.4,0.3-0.9,0.5-1.4,0.4c-0.5,0-0.9-0.1-1.3-0.4c-0.3-0.4-0.6-0.8-0.7-1.4
	c-0.2-0.3-0.5-0.6-0.8-0.7c-0.5-0.1-1.1-0.2-1.7-0.2h-7.1c-0.6,0-1.2,0-1.8,0.2c-0.4,0.1-0.7,0.4-0.8,0.8c-0.2,0.6-0.2,1.2-0.2,1.8
	c-0.1,0.8,0.1,1.6,0.6,2.2c0.6,0.5,1.4,0.7,2.2,0.6h7.4c4.6,0,6.9,2.3,6.9,6.9c0,4.6-2.3,6.9-6.9,6.9h-7.5
	C279.8,136.4,277.5,134.8,276.9,131.6z"/>
<path class="st0" d="M145.7,85.4c-4.9,1.9-10.1,2.9-15.4,2.9c-3.3,0-6.6-0.4-9.7-1.2c-3-0.8-5.9-2-8.6-3.5c-2.6-1.5-5-3.3-7.1-5.4
	c-4.2-4.2-7.2-9.4-8.8-15.2c-2-7.6-1.5-15.6,1.5-22.8c1.7-4.1,4.3-7.8,7.5-10.8c3.3-3.1,7.2-5.5,11.4-7.1c7.1-2.6,14.8-3.2,22.2-1.8
	c2.6,0.5,5.1,1.3,7.5,2.4s4.7,2.4,6.8,4s4,3.5,5.7,5.5l-9.4,8.9c-1.2-1.6-2.6-3.1-4.1-4.4c-1.3-1.1-2.7-2.1-4.3-2.9
	c-1.5-0.7-3-1.3-4.7-1.6s-3.5-0.5-5.3-0.5c-3.1,0-6.3,0.5-9.2,1.7c-2.7,1-5.1,2.6-7.2,4.6c-2,2-3.6,4.3-4.6,6.9
	c-1.1,2.7-1.7,5.7-1.6,8.6c0,2.9,0.5,5.8,1.6,8.5c1,2.6,2.6,5.1,4.5,7.1c2,2.1,4.4,3.8,7,4.9c2.9,1.2,6,1.8,9.1,1.8
	c1.7,0,3.5-0.2,5.2-0.5c1.7-0.4,3.4-0.9,5-1.7c1.8-0.8,3.4-1.8,5-3c1.9-1.4,3.6-2.9,5.3-4.5l8.1,9.5C155.5,80,150.8,83.2,145.7,85.4
	z"/>
<path class="st0" d="M214.3,85.4c-4.9,1.9-10.1,2.9-15.4,2.9c-3.3,0-6.6-0.4-9.7-1.2c-3-0.8-5.9-2-8.6-3.5c-2.6-1.5-5-3.3-7.1-5.4
	c-4.2-4.2-7.3-9.4-8.8-15.2c-2-7.6-1.5-15.6,1.5-22.8c1.7-4.1,4.3-7.8,7.5-10.8c3.3-3.1,7.2-5.5,11.4-7.1c7.1-2.6,14.8-3.2,22.2-1.8
	c2.6,0.5,5.1,1.3,7.5,2.4s4.7,2.4,6.8,4s4,3.5,5.7,5.5l-9.4,8.9c-1.2-1.6-2.6-3.1-4.1-4.4c-1.3-1.1-2.7-2.1-4.3-2.9
	c-1.5-0.7-3-1.3-4.7-1.6s-3.5-0.5-5.3-0.5c-3.1,0-6.3,0.5-9.2,1.7c-2.7,1-5.1,2.6-7.2,4.6c-2,2-3.6,4.3-4.6,6.9
	c-1.1,2.7-1.7,5.7-1.6,8.6c0,2.9,0.5,5.8,1.6,8.5c1,2.6,2.6,5.1,4.5,7.1c2,2.1,4.4,3.8,7,4.9c2.9,1.2,6,1.8,9.1,1.8
	c1.7,0,3.5-0.2,5.2-0.5c1.7-0.4,3.4-0.9,5-1.7c1.8-0.8,3.4-1.8,5-3c1.9-1.4,3.6-2.9,5.3-4.5l8.1,9.5C224.1,80,219.5,83.2,214.3,85.4
	z"/>
<path class="st0" d="M303.8,54c0,3.4-0.5,6.8-1.5,10c-3,9.8-10.3,17.7-19.8,21.4v0.4c2,0.9,4,1.6,6.1,2.2c2,0.5,4,0.8,6.1,0.8
	c0.5,0,1,0,1.5,0s1-0.1,1.5-0.1l1.9,10.5c-1.1,0.6-2.3,1-3.5,1.3c-1.1,0.2-2.2,0.4-3.4,0.4c-2.4,0-4.8-0.4-7.1-1.1
	c-2.3-0.7-4.5-1.6-6.8-2.5c-2.2-0.9-4.5-1.7-6.8-2.5c-2.2-0.7-4.6-1.1-7-1.1c-2,0.1-4,0.7-5.8,1.7c-2.6,1.4-5,3-7.2,4.9L245.4,90
	c0.6-0.5,1.3-1.1,1.9-1.5c0.7-0.5,1.4-0.9,2.2-1.3c0.8-0.3,1.6-0.6,2.5-0.7c1-0.1,2-0.2,3-0.1l0.1-0.5c-6.9-2.2-12.9-6.6-17-12.5
	c-2-2.8-3.5-5.9-4.5-9.2c-1.9-6.3-2-13-0.3-19.4c0.8-2.9,2-5.7,3.5-8.3c1.5-2.5,3.4-4.9,5.5-6.9c2.1-2.1,4.6-3.9,7.2-5.3
	c2.7-1.5,5.5-2.6,8.5-3.4c3.1-0.8,6.3-1.2,9.5-1.2c4.9,0,9.8,0.8,14.3,2.6c4.2,1.7,8.1,4.1,11.4,7.3c3.2,3.1,5.8,6.8,7.6,10.9
	C303,44.8,303.9,49.4,303.8,54z M290.3,54c0-2.9-0.5-5.8-1.5-8.6c-1-2.6-2.5-5-4.4-7c-2-2.1-4.3-3.7-7-4.8c-5.9-2.3-12.5-2.3-18.5,0
	c-2.6,1.1-5,2.7-7.1,4.8c-2,2-3.5,4.4-4.6,7c-1.1,2.7-1.6,5.6-1.6,8.6c0,2.9,0.5,5.8,1.7,8.5c1.1,2.6,2.6,5,4.6,7s4.5,3.7,7.1,4.8
	c2.9,1.2,6,1.8,9.1,1.7c3.2,0,6.4-0.6,9.3-2c5.2-2.5,9.2-6.8,11.3-12.2C289.8,59.3,290.3,56.7,290.3,54z"/>
<rect x="66" y="26.8" class="st0" width="11.7" height="11.7"/>
<rect x="66" y="44.5" class="st0" width="11.7" height="11.7"/>
<rect x="66" y="61.5" class="st0" width="11.7" height="11.7"/>
<rect x="66" y="78.4" class="st0" width="11.7" height="9.3"/>
<rect x="45" y="66.9" class="st0" width="11.7" height="11.7"/>
<rect x="45" y="83.9" class="st1" width="11.7" height="11.7"/>
<rect x="45" y="101.2" class="st0" width="11.7" height="11.7"/>
<rect x="24" y="44.5" class="st2" width="11.7" height="8.5"/>
<rect x="24" y="58.3" class="st0" width="11.7" height="11.7"/>
<rect x="24" y="76" class="st0" width="11.7" height="11.7"/>
<rect x="45" y="118.4" class="st0" width="11.7" height="11.7"/>
</svg>
